<svg width="71" height="25" viewBox="0 0 71 25" fill="none" xmlns="http://www.w3.org/2000/svg">
<path d="M12 0C13.6849 2.20951e-07 15.2881 0.348729 16.7432 0.975586C16.3852 1.1705 16.0397 1.39373 15.7061 1.64062C14.548 1.2263 13.3005 1 12 1C5.92487 1 1 5.92487 1 12C0.999999 18.0751 5.92487 23 12 23C13.3006 23 14.5479 22.7728 15.7061 22.3584C16.0397 22.6053 16.3852 22.8285 16.7432 23.0234C15.288 23.6504 13.6851 24 12 24C5.37258 24 -8.69081e-07 18.6274 0 12C8.69081e-07 5.37258 5.37258 8.31862e-07 12 0ZM21.75 0C22.8896 1.49444e-07 23.9824 0.243293 24.999 0.685547C24.6562 0.87958 24.3247 1.11164 24.0068 1.37988C23.2803 1.13324 22.5232 1 21.75 1C17.1015 1 13 5.72083 13 12C13 18.2792 17.1015 23 21.75 23C22.5233 23 23.2802 22.8659 24.0068 22.6191C24.3247 22.8874 24.6562 23.1194 24.999 23.3135C23.9823 23.7558 22.8898 24 21.75 24C16.3652 24 12 18.6274 12 12C12 5.37258 16.3652 1.38734e-06 21.75 0ZM30 0C30.796 1.04386e-07 31.5624 0.199767 32.2822 0.567383C32.0599 0.780458 31.8461 1.05017 31.6426 1.37109C31.1043 1.12633 30.5527 1 30 1C28.3981 1 26.7969 2.04183 25.5449 4.04492C24.3018 6.03392 23.5 8.84375 23.5 12C23.5 15.1562 24.3018 17.9661 25.5449 19.9551C26.7969 21.9582 28.3981 23 30 23C30.5528 23 31.1042 22.8728 31.6426 22.6279C31.8461 22.9489 32.0599 23.2185 32.2822 23.4316C31.5623 23.7994 30.7962 24 30 24C25.8579 24 22.5 18.6274 22.5 12C22.5 5.37258 25.8579 2.17833e-06 30 0ZM35.3467 0.00390625C37.3731 0.168006 39 5.47602 39 12L38.9951 12.6172C38.8963 18.8556 37.3088 23.8372 35.3467 23.9961L35.25 24C33.1789 24 31.5 18.6274 31.5 12C31.5 5.37259 33.1789 5.17133e-06 35.25 0L35.3467 0.00390625ZM40.5 0C44.6421 5.43175e-07 48 5.37258 48 12C48 18.6274 44.6421 24 40.5 24C39.7035 24 38.937 23.7996 38.2168 23.4316C38.4392 23.2185 38.6528 22.949 38.8564 22.6279C39.3951 22.8731 39.9469 23 40.5 23C42.1019 23 43.7031 21.9582 44.9551 19.9551C46.1982 17.9661 47 15.1562 47 12C47 8.84375 46.1982 6.03392 44.9551 4.04492C43.7031 2.04183 42.1019 1 40.5 1C39.947 1 39.395 1.12608 38.8564 1.37109C38.6528 1.05012 38.4392 0.780436 38.2168 0.567383C38.9368 0.199513 39.7037 4.18776e-07 40.5 0ZM48.75 0C54.1348 7.06128e-07 58.5 5.37258 58.5 12C58.5 18.6274 54.1348 24 48.75 24C47.5032 24 46.3127 23.7085 45.2168 23.1836C45.5358 22.985 45.8446 22.7539 46.1406 22.4902C46.9732 22.8206 47.8508 23 48.75 23C53.3985 23 57.5 18.2792 57.5 12C57.5 5.72083 53.3985 1 48.75 1C47.8509 1 46.9731 1.17847 46.1406 1.50879C45.8446 1.24516 45.5358 1.014 45.2168 0.81543C46.3126 0.290607 47.5034 3.21186e-07 48.75 0ZM58.5 0C65.1274 8.69081e-07 70.5 5.37258 70.5 12C70.5 18.6274 65.1274 24 58.5 24C56.9212 24 55.4149 23.6918 54.0342 23.1377C54.4138 22.9453 54.7812 22.7238 55.1348 22.4736C56.1956 22.8142 57.326 23 58.5 23C64.5751 23 69.5 18.0751 69.5 12C69.5 5.92487 64.5751 1 58.5 1C57.3261 1 56.1955 1.18487 55.1348 1.52539C54.7813 1.27525 54.4137 1.05369 54.0342 0.861328C55.4148 0.307285 56.9213 1.98154e-07 58.5 0ZM35.25 1C35.1985 1 34.9655 1.0353 34.5947 1.53711C34.2383 2.01949 33.8751 2.78206 33.5527 3.81348C32.9119 5.86438 32.5 8.75891 32.5 12C32.5 15.2411 32.9119 18.1356 33.5527 20.1865C33.8751 21.2179 34.2383 21.9805 34.5947 22.4629C34.9655 22.9647 35.1985 23 35.25 23C35.3015 23 35.5345 22.9647 35.9053 22.4629C36.2617 21.9805 36.6249 21.2179 36.9473 20.1865C37.5881 18.1356 38 15.2411 38 12C38 8.75891 37.5881 5.86438 36.9473 3.81348C36.6249 2.78205 36.2617 2.01949 35.9053 1.53711C35.5345 1.0353 35.3015 1 35.25 1Z" fill="white" style="fill:white;fill-opacity:1;"/>
<path opacity="0.1" d="M12 1C13.6849 1 15.2881 1.34873 16.7432 1.97559C16.3852 2.1705 16.0397 2.39373 15.7061 2.64062C14.548 2.2263 13.3005 2 12 2C5.92487 2 1 6.92487 1 13C0.999999 19.0751 5.92487 24 12 24C13.3006 24 14.5479 23.7728 15.7061 23.3584C16.0397 23.6053 16.3852 23.8285 16.7432 24.0234C15.288 24.6504 13.6851 25 12 25C5.37258 25 -8.69081e-07 19.6274 0 13C8.69081e-07 6.37258 5.37258 1 12 1ZM21.75 1C22.8896 1 23.9824 1.24329 24.999 1.68555C24.6562 1.87958 24.3247 2.11164 24.0068 2.37988C23.2803 2.13324 22.5232 2 21.75 2C17.1015 2 13 6.72083 13 13C13 19.2792 17.1015 24 21.75 24C22.5233 24 23.2802 23.8659 24.0068 23.6191C24.3247 23.8874 24.6562 24.1194 24.999 24.3135C23.9823 24.7558 22.8898 25 21.75 25C16.3652 25 12 19.6274 12 13C12 6.37258 16.3652 1 21.75 1ZM30 1C30.796 1 31.5624 1.19977 32.2822 1.56738C32.0599 1.78046 31.8461 2.05017 31.6426 2.37109C31.1043 2.12633 30.5527 2 30 2C28.3981 2 26.7969 3.04183 25.5449 5.04492C24.3018 7.03392 23.5 9.84375 23.5 13C23.5 16.1562 24.3018 18.9661 25.5449 20.9551C26.7969 22.9582 28.3981 24 30 24C30.5528 24 31.1042 23.8728 31.6426 23.6279C31.8461 23.9489 32.0599 24.2185 32.2822 24.4316C31.5623 24.7994 30.7962 25 30 25C25.8579 25 22.5 19.6274 22.5 13C22.5 6.37258 25.8579 1 30 1ZM35.3467 1.00391C37.3731 1.16801 39 6.47602 39 13L38.9951 13.6172C38.8963 19.8556 37.3088 24.8372 35.3467 24.9961L35.25 25C33.1789 25 31.5 19.6274 31.5 13C31.5 6.37259 33.1789 1.00001 35.25 1L35.3467 1.00391ZM40.5 1C44.6421 1 48 6.37258 48 13C48 19.6274 44.6421 25 40.5 25C39.7035 25 38.937 24.7996 38.2168 24.4316C38.4392 24.2185 38.6528 23.949 38.8564 23.6279C39.3951 23.8731 39.9469 24 40.5 24C42.1019 24 43.7031 22.9582 44.9551 20.9551C46.1982 18.9661 47 16.1562 47 13C47 9.84375 46.1982 7.03392 44.9551 5.04492C43.7031 3.04183 42.1019 2 40.5 2C39.947 2 39.395 2.12608 38.8564 2.37109C38.6528 2.05012 38.4392 1.78044 38.2168 1.56738C38.9368 1.19951 39.7037 1 40.5 1ZM48.75 1C54.1348 1 58.5 6.37258 58.5 13C58.5 19.6274 54.1348 25 48.75 25C47.5032 25 46.3127 24.7085 45.2168 24.1836C45.5358 23.985 45.8446 23.7539 46.1406 23.4902C46.9732 23.8206 47.8508 24 48.75 24C53.3985 24 57.5 19.2792 57.5 13C57.5 6.72083 53.3985 2 48.75 2C47.8509 2 46.9731 2.17847 46.1406 2.50879C45.8446 2.24516 45.5358 2.014 45.2168 1.81543C46.3126 1.29061 47.5034 1 48.75 1ZM58.5 1C65.1274 1 70.5 6.37258 70.5 13C70.5 19.6274 65.1274 25 58.5 25C56.9212 25 55.4149 24.6918 54.0342 24.1377C54.4138 23.9453 54.7812 23.7238 55.1348 23.4736C56.1956 23.8142 57.326 24 58.5 24C64.5751 24 69.5 19.0751 69.5 13C69.5 6.92487 64.5751 2 58.5 2C57.3261 2 56.1955 2.18487 55.1348 2.52539C54.7813 2.27525 54.4137 2.05369 54.0342 1.86133C55.4148 1.30728 56.9213 1 58.5 1ZM35.25 2C35.1985 2 34.9655 2.0353 34.5947 2.53711C34.2383 3.01949 33.8751 3.78206 33.5527 4.81348C32.9119 6.86438 32.5 9.75891 32.5 13C32.5 16.2411 32.9119 19.1356 33.5527 21.1865C33.8751 22.2179 34.2383 22.9805 34.5947 23.4629C34.9655 23.9647 35.1985 24 35.25 24C35.3015 24 35.5345 23.9647 35.9053 23.4629C36.2617 22.9805 36.6249 22.2179 36.9473 21.1865C37.5881 19.1356 38 16.2411 38 13C38 9.75891 37.5881 6.86438 36.9473 4.81348C36.6249 3.78205 36.2617 3.01949 35.9053 2.53711C35.5345 2.0353 35.3015 2 35.25 2Z" fill="#181C2F" style="fill:#181C2F;fill:color(display-p3 0.0941 0.1098 0.1843);fill-opacity:1;"/>
</svg>
