<svg width="89" height="26" viewBox="0 0 89 26" fill="none" xmlns="http://www.w3.org/2000/svg">
<path d="M9.9375 14.9014C10.344 14.9014 10.6738 15.2312 10.6738 15.6377V20.2383C10.6737 23.1855 8.28412 25.5751 5.33691 25.5752C2.38962 25.5752 0.000158184 23.1855 0 20.2383C0 17.2909 2.38953 14.9014 5.33691 14.9014H9.9375ZM11.1377 0C14.8218 0.00013192 17.8086 2.98674 17.8086 6.6709C17.8086 10.3551 14.8218 13.3417 11.1377 13.3418H5.21289C4.80079 13.3418 4.46696 13.0078 4.4668 12.5957V6.6709C4.4668 2.98666 7.45346 0 11.1377 0Z" fill="#1171DF" style="fill:#1171DF;fill:color(display-p3 0.0667 0.4431 0.8745);fill-opacity:1;"/>
<path d="M76.55 8.03906H80.0891L82.4839 17.5755H82.5262L84.9633 8.03906H88.4601L84.3912 22.4498H80.9792L82.06 18.8471C80.5819 18.8471 79.285 17.862 78.8886 16.438L76.55 8.03906Z" fill="#181C2F" style="fill:#181C2F;fill:color(display-p3 0.0941 0.1098 0.1843);fill-opacity:1;"/>
<path d="M72.7438 17.2754C72.546 17.8122 72.1999 18.2502 71.7054 18.5893C71.2109 18.9283 70.5681 19.0979 69.7769 19.0979C68.802 19.0979 68.0038 18.8294 67.3822 18.2926C66.7605 17.7557 66.4497 17.014 66.4497 16.0674C66.4497 15.1067 66.7535 14.372 67.361 13.8634C67.9685 13.3548 68.7031 13.0087 69.565 12.825L73.0193 12.0409V14.1389L70.9636 14.6687C70.5681 14.7676 70.2714 14.9089 70.0736 15.0926C69.8899 15.2621 69.7981 15.4881 69.7981 15.7707C69.7981 16.0391 69.9111 16.2723 70.1371 16.47C70.3773 16.6678 70.6881 16.7667 71.0696 16.7667C71.4934 16.7667 71.8396 16.6466 72.108 16.4065C72.3765 16.1663 72.5107 15.8484 72.5107 15.4528V12.4223C72.5107 11.9137 72.3199 11.4969 71.9385 11.172C71.557 10.8329 70.9919 10.6634 70.2431 10.6634C69.678 10.6634 69.1411 10.7552 68.6325 10.9389C68.138 11.1226 67.6859 11.3627 67.2762 11.6594V8.75609C67.7283 8.44527 68.2722 8.20509 68.908 8.03556C69.5438 7.86602 70.2219 7.78125 70.9425 7.78125C72.4542 7.78125 73.6551 8.1839 74.5451 8.9892C75.4493 9.79451 75.9014 10.953 75.9014 12.4647V18.8436H72.7862V17.2754H72.7438Z" fill="#181C2F" style="fill:#181C2F;fill:color(display-p3 0.0941 0.1098 0.1843);fill-opacity:1;"/>
<path d="M58.1445 19.1035C57.1979 19.1035 56.3431 18.8704 55.5802 18.4041C54.8314 17.9379 54.238 17.288 53.8001 16.4545C53.3762 15.6068 53.1643 14.6249 53.1643 13.5087C53.1643 12.3644 53.3833 11.3683 53.8213 10.5206C54.2734 9.65883 54.8809 8.98774 55.6438 8.50739C56.4067 8.02703 57.2615 7.78685 58.208 7.78685C58.9992 7.78685 59.6915 7.95639 60.2849 8.29546C60.8783 8.63454 61.3162 9.11489 61.5988 9.73653H61.6412V4.22656H65.0319V18.8492H61.8107V16.8359H61.7683C61.4999 17.5423 61.0478 18.1004 60.412 18.5101C59.7763 18.9057 59.0204 19.1035 58.1445 19.1035ZM59.1617 16.3061C59.9105 16.3061 60.5251 16.0377 61.0054 15.5008C61.4858 14.9639 61.7259 14.2787 61.7259 13.4452C61.7259 12.6116 61.4858 11.9264 61.0054 11.3895C60.5251 10.8527 59.9105 10.5842 59.1617 10.5842C58.3988 10.5842 57.7771 10.8527 57.2968 11.3895C56.8306 11.9123 56.5974 12.5975 56.5974 13.4452C56.5974 14.2787 56.8376 14.9639 57.318 15.5008C57.7983 16.0377 58.4129 16.3061 59.1617 16.3061Z" fill="#181C2F" style="fill:#181C2F;fill:color(display-p3 0.0941 0.1098 0.1843);fill-opacity:1;"/>
<path d="M48.4222 8.03834H51.8129V18.8464H48.4222V8.03834ZM50.1175 6.66085C49.1422 6.66085 48.3374 5.8702 48.3374 4.89488C48.3374 3.91956 49.1422 3.12891 50.1175 3.12891C51.0929 3.12891 51.8977 3.91956 51.8977 4.89488C51.8977 5.8702 51.0929 6.66085 50.1175 6.66085Z" fill="#181C2F" style="fill:#181C2F;fill:color(display-p3 0.0941 0.1098 0.1843);fill-opacity:1;"/>
<path d="M44.0541 10.5786C44.2237 9.66029 44.5486 8.96801 45.029 8.50178C45.5093 8.02143 46.1098 7.78125 46.8303 7.78125C46.9151 7.78125 46.9998 7.78125 47.0846 7.78125C47.1835 7.78125 47.2895 7.79538 47.4025 7.82363V11.0025C47.2895 10.9742 47.1835 10.9601 47.0846 10.9601C46.9998 10.9601 46.9221 10.9601 46.8515 10.9601C46.0038 10.9601 45.3468 11.2214 44.8806 11.7442C44.4144 12.2669 44.1813 13.0793 44.1813 14.1813V18.8436H40.7905V8.03556H44.0117V10.5786H44.0541Z" fill="#181C2F" style="fill:#181C2F;fill:color(display-p3 0.0941 0.1098 0.1843);fill-opacity:1;"/>
<path d="M39.4854 4.4375V7.40441H34.4841V10.2018H39.2735V13.1263H34.4841V18.8482H31.0085V4.4375H39.4854Z" fill="#181C2F" style="fill:#181C2F;fill:color(display-p3 0.0941 0.1098 0.1843);fill-opacity:1;"/>
</svg>
