<svg width="106" height="107" viewBox="0 0 106 107" fill="none" xmlns="http://www.w3.org/2000/svg">
<g style="mix-blend-mode:plus-darker">
<path d="M77.6599 97.0233C78.4808 98.728 77.7644 100.775 76.0597 101.596C74.3551 102.417 72.3077 101.701 71.4867 99.9961L28.0833 9.868C27.2624 8.16333 27.9788 6.11593 29.6834 5.29501C31.3881 4.47408 33.4355 5.1905 34.2564 6.89517L77.6599 97.0233Z" fill="#999CFA" style="fill:#999CFA;fill:color(display-p3 0.5990 0.6118 0.9813);fill-opacity:1;"/>
</g>
<g style="mix-blend-mode:plus-darker">
<path d="M11.6293 24.9387C10.15 23.759 9.90718 21.6035 11.0868 20.1243C12.2665 18.645 14.422 18.4022 15.9013 19.5818L94.1116 81.9525C95.5909 83.1321 95.8337 85.2876 94.654 86.7669C93.4744 88.2461 91.3189 88.489 89.8396 87.3093L11.6293 24.9387Z" fill="#F1FB6F" style="fill:#F1FB6F;fill:color(display-p3 0.9451 0.9843 0.4353);fill-opacity:1;"/>
</g>
<g style="mix-blend-mode:plus-darker">
<path d="M102.396 61.237C104.241 61.658 105.395 63.4947 104.974 65.3393C104.553 67.1839 102.716 68.3379 100.871 67.9169L3.3446 45.6571C1.5 45.236 0.345956 43.3994 0.766975 41.5548C1.18799 39.7102 3.02464 38.5561 4.86924 38.9772L102.396 61.237Z" fill="#4DAB49" style="fill:#4DAB49;fill:color(display-p3 0.3020 0.6706 0.2863);fill-opacity:1;"/>
</g>
<g style="mix-blend-mode:plus-darker">
<path d="M4.86478 67.9167C3.02018 68.3377 1.18353 67.1836 0.762513 65.339C0.341494 63.4944 1.49554 61.6578 3.34014 61.2368L100.867 38.977C102.711 38.5559 104.548 39.71 104.969 41.5546C105.39 43.3992 104.236 45.2358 102.391 45.6569L4.86478 67.9167Z" fill="#FF8333" style="fill:#FF8333;fill:color(display-p3 1.0000 0.5137 0.2000);fill-opacity:1;"/>
</g>
<g style="mix-blend-mode:plus-darker">
<path d="M89.839 19.5833C91.3183 18.4036 93.4737 18.6465 94.6534 20.1257C95.8331 21.605 95.5902 23.7605 94.111 24.9401L15.9006 87.3107C14.4213 88.4904 12.2658 88.2475 11.0862 86.7683C9.9065 85.289 10.1494 83.1335 11.6286 81.9539L89.839 19.5833Z" fill="#FFBA04" style="fill:#FFBA04;fill:color(display-p3 1.0000 0.7294 0.0157);fill-opacity:1;"/>
</g>
<g style="mix-blend-mode:plus-darker">
<path d="M34.2556 99.9999C33.4347 101.705 31.3873 102.421 29.6826 101.6C27.9779 100.779 27.2615 98.7317 28.0825 97.027L71.4859 6.8989C72.3069 5.19423 74.3543 4.47782 76.0589 5.29874C77.7636 6.11967 78.48 8.16706 77.6591 9.87173L34.2556 99.9999Z" fill="#E09681" style="fill:#E09681;fill:color(display-p3 0.8800 0.5882 0.5075);fill-opacity:1;"/>
</g>
<g style="mix-blend-mode:plus-darker">
<path d="M49.4448 3.42619C49.4448 1.53415 50.9786 0.000352345 52.8707 0.000352593C54.7627 0.000352842 56.2965 1.53415 56.2965 3.4262L56.2965 103.461C56.2965 105.353 54.7627 106.887 52.8707 106.887C50.9786 106.887 49.4448 105.353 49.4448 103.461L49.4448 3.42619Z" fill="#00A2FD" style="fill:#00A2FD;fill:color(display-p3 0.0000 0.6353 0.9922);fill-opacity:1;"/>
</g>
</svg>
